<mxfile host="app.diagrams.net" modified="2023-08-31T09:21:56.355Z" agent="Mozilla/5.0 (Windows NT 10.0; Win64; x64) AppleWebKit/537.36 (KHTML, like Gecko) Chrome/116.0.0.0 Safari/537.36" version="21.6.9" etag="42HGbzbzWNMCOESMlHhv" type="github">
  <diagram name="Page-1" id="Vy8DXc2n26n4HO3uCnWW">
    <mxGraphModel>
      <root>
        <mxCell id="0" />
        <mxCell id="1" parent="0" />
      </root>
    </mxGraphModel>
  </diagram>
</mxfile>
